<mxfile host="app.diagrams.net" modified="2024-06-04T17:43:06.627Z" agent="Mozilla/5.0 (Windows NT 10.0; Win64; x64) AppleWebKit/537.36 (KHTML, like Gecko) Chrome/125.0.0.0 Safari/537.36" version="24.4.13" etag="aN2oJcR4YehR54dxpucI" type="github">
  <diagram name="Page-1" id="SAfQb0xFwQQiBTgrf8Kt">
    <mxGraphModel>
      <root>
        <mxCell id="0" />
        <mxCell id="1" parent="0" />
      </root>
    </mxGraphModel>
  </diagram>
</mxfile>
